<?xml version="1.0" encoding="utf-8"?>
<!-- Generator: Adobe Illustrator 25.4.1, SVG Export Plug-In . SVG Version: 6.00 Build 0)  -->
<svg version="1.1" id="Layer_1" xmlns="http://www.w3.org/2000/svg" xmlns:xlink="http://www.w3.org/1999/xlink" x="0px" y="0px"
	 viewBox="0 0 95 63.1" style="enable-background:new 0 0 95 63.1;" xml:space="preserve">
<style type="text/css">
	.st0{fill:#212121;}
	.st1{fill:#FFFFFF;}
</style>
<path class="st0" d="M85,31.5c0-5.3,4.3-9.7,9.6-9.7h0V7.5c0-4-3.3-7.3-7.3-7.3h0H7.7c-4,0-7.3,3.3-7.3,7.3l0,0v14.3
	c5.3-0.2,9.8,4,10,9.3s-4,9.8-9.3,10c-0.2,0-0.4,0-0.6,0v14.3c0,4,3.3,7.3,7.3,7.3c0,0,0,0,0,0h79.7c4,0,7.3-3.3,7.3-7.3
	c0,0,0,0,0,0V41.2C89.3,41.2,85,36.9,85,31.5C85,31.5,85,31.5,85,31.5z"/>
<path class="st1" d="M69.6,32.6h-5.1L60,50.9h-4.9l-4.8-18.3h-6.2l-4.8,18.3h-4.9l-4.6-18.3h-5.4v-4h4.4l-3.6-14.7h4.5l3.4,14.7h7.7
	l3.7-14.7h5.2l3.7,14.7h7.7l3.4-14.7h4.6l-3.6,14.7h4.1L69.6,32.6z M39.8,32.6h-5.6l2.7,11.1L39.8,32.6z M49.2,28.6l-2-8l-2.1,8
	H49.2z M60.1,32.6h-5.5l2.8,11.1L60.1,32.6z"/>
</svg>
