<?xml version="1.0" encoding="utf-8"?>
<!-- Generator: Adobe Illustrator 25.4.1, SVG Export Plug-In . SVG Version: 6.00 Build 0)  -->
<svg version="1.1" id="Layer_1" xmlns="http://www.w3.org/2000/svg" xmlns:xlink="http://www.w3.org/1999/xlink" x="0px" y="0px"
	 viewBox="0 0 62.9 63.1" style="enable-background:new 0 0 62.9 63.1;" xml:space="preserve">
<style type="text/css">
	.st0{fill:#FFFFFF;}
	.st1{clip-path:url(#SVGID_00000044860805689560388680000008464196911561394602_);}
	.st2{fill:#4D3437;}
</style>
<circle class="st0" cx="31.5" cy="31.2" r="23.2"/>
<g>
	<defs>
		<path id="SVGID_1_" d="M31.7,0h-0.5C14,0,0,14,0,31.2c0,0,0,0,0,0V32c0,11.4,6.3,22,16.3,27.4c-0.4,1.6-1.1,3.1-2.1,4.4
			c-1.3,1.8-3,3.8-3.8,4.7s-0.1,1.2,2.2,0.6c3.7-1.1,7.3-2.6,10.7-4.5c1.6-0.9,2.6-1.5,3.2-1.8c1.5,0.2,3,0.4,4.6,0.4h0.5
			c17.2,0,31.2-14,31.2-31.2v-0.8C62.9,14,48.9,0,31.7,0C31.7,0,31.7,0,31.7,0z M15,30.6h6.7v6.6H15c-1,0-1.9-0.3-2.7-0.9
			c-0.7-0.6-1.1-1.5-1-2.4c0-0.9,0.4-1.8,1.1-2.4C13.1,30.9,14,30.6,15,30.6z M46.4,33.6c-2,2.5-5,3.7-8.8,3.7H33v-6.6h2.5
			c1.6,0.1,3.1-0.4,4.2-1.5c1-1,1.5-2.4,1.4-3.8c0-1.3-0.6-2.6-1.6-3.5c-1-0.9-2.3-1.3-3.7-1.3h-4.8v24.7c0,1.1-0.3,2.2-1,3.1
			c-0.7,0.8-1.7,1.3-2.8,1.2c-1.1,0.1-2.1-0.4-2.8-1.2c-0.7-0.9-1.1-1.9-1.1-3.1V18.6c-0.2-2.4,1.5-4.5,3.9-4.7c0.3,0,0.5,0,0.8,0
			h8.3c3.9,0,6.9,1,8.9,2.9c0.8,0.7,1.4,1.5,1.9,2.5c0.6,0.9,1,1.9,1.3,3c0.3,1,0.4,2.1,0.4,3.1C49.2,28.3,48.2,31.3,46.4,33.6
			L46.4,33.6z"/>
	</defs>
	<clipPath id="SVGID_00000111186491000718563590000017911653201644300187_">
		<use xlink:href="#SVGID_1_"  style="overflow:visible;"/>
	</clipPath>
	<g style="clip-path:url(#SVGID_00000111186491000718563590000017911653201644300187_);">
		<circle class="st2" cx="31.4" cy="31.5" r="31.2"/>
	</g>
</g>
</svg>
